<svg id="visual" viewBox="0 0 900 600" width="900" height="600" xmlns="http://www.w3.org/2000/svg" xmlns:xlink="http://www.w3.org/1999/xlink" version="1.1"><path d="M0 432L21.5 427.5C43 423 86 414 128.8 412.8C171.7 411.7 214.3 418.3 257.2 419.7C300 421 343 417 385.8 412.2C428.7 407.3 471.3 401.7 514.2 396.8C557 392 600 388 642.8 396.2C685.7 404.3 728.3 424.7 771.2 427.3C814 430 857 415 878.5 407.5L900 400L900 601L878.5 601C857 601 814 601 771.2 601C728.3 601 685.7 601 642.8 601C600 601 557 601 514.2 601C471.3 601 428.7 601 385.8 601C343 601 300 601 257.2 601C214.3 601 171.7 601 128.8 601C86 601 43 601 21.5 601L0 601Z" fill="#cccccc"></path><path d="M0 434L21.5 438.3C43 442.7 86 451.3 128.8 452.7C171.7 454 214.3 448 257.2 444.2C300 440.3 343 438.7 385.8 438.5C428.7 438.3 471.3 439.7 514.2 442.3C557 445 600 449 642.8 450.3C685.7 451.7 728.3 450.3 771.2 444.7C814 439 857 429 878.5 424L900 419L900 601L878.5 601C857 601 814 601 771.2 601C728.3 601 685.7 601 642.8 601C600 601 557 601 514.2 601C471.3 601 428.7 601 385.8 601C343 601 300 601 257.2 601C214.3 601 171.7 601 128.8 601C86 601 43 601 21.5 601L0 601Z" fill="#c7c7c5"></path><path d="M0 464L21.5 465.8C43 467.7 86 471.3 128.8 474.8C171.7 478.3 214.3 481.7 257.2 475.2C300 468.7 343 452.3 385.8 447.8C428.7 443.3 471.3 450.7 514.2 456.5C557 462.3 600 466.7 642.8 462.5C685.7 458.3 728.3 445.7 771.2 440.8C814 436 857 439 878.5 440.5L900 442L900 601L878.5 601C857 601 814 601 771.2 601C728.3 601 685.7 601 642.8 601C600 601 557 601 514.2 601C471.3 601 428.7 601 385.8 601C343 601 300 601 257.2 601C214.3 601 171.7 601 128.8 601C86 601 43 601 21.5 601L0 601Z" fill="#c2c2bf"></path><path d="M0 470L21.5 470.3C43 470.7 86 471.3 128.8 472C171.7 472.7 214.3 473.3 257.2 472.5C300 471.7 343 469.3 385.8 470C428.7 470.7 471.3 474.3 514.2 476.5C557 478.7 600 479.3 642.8 481C685.7 482.7 728.3 485.3 771.2 481.5C814 477.7 857 467.3 878.5 462.2L900 457L900 601L878.5 601C857 601 814 601 771.2 601C728.3 601 685.7 601 642.8 601C600 601 557 601 514.2 601C471.3 601 428.7 601 385.8 601C343 601 300 601 257.2 601C214.3 601 171.7 601 128.8 601C86 601 43 601 21.5 601L0 601Z" fill="#bdbdb8"></path><path d="M0 500L21.5 501.2C43 502.3 86 504.7 128.8 507.7C171.7 510.7 214.3 514.3 257.2 514.5C300 514.7 343 511.3 385.8 510.7C428.7 510 471.3 512 514.2 510.5C557 509 600 504 642.8 504.3C685.7 504.7 728.3 510.3 771.2 507.8C814 505.3 857 494.7 878.5 489.3L900 484L900 601L878.5 601C857 601 814 601 771.2 601C728.3 601 685.7 601 642.8 601C600 601 557 601 514.2 601C471.3 601 428.7 601 385.8 601C343 601 300 601 257.2 601C214.3 601 171.7 601 128.8 601C86 601 43 601 21.5 601L0 601Z" fill="#b7b7b2"></path><path d="M0 512L21.5 515.5C43 519 86 526 128.8 525.2C171.7 524.3 214.3 515.7 257.2 514.2C300 512.7 343 518.3 385.8 520C428.7 521.7 471.3 519.3 514.2 518.5C557 517.7 600 518.3 642.8 521.5C685.7 524.7 728.3 530.3 771.2 530.3C814 530.3 857 524.7 878.5 521.8L900 519L900 601L878.5 601C857 601 814 601 771.2 601C728.3 601 685.7 601 642.8 601C600 601 557 601 514.2 601C471.3 601 428.7 601 385.8 601C343 601 300 601 257.2 601C214.3 601 171.7 601 128.8 601C86 601 43 601 21.5 601L0 601Z" fill="#b2b2ab"></path><path d="M0 556L21.5 552C43 548 86 540 128.8 535.8C171.7 531.7 214.3 531.3 257.2 534.8C300 538.3 343 545.7 385.8 545.7C428.7 545.7 471.3 538.3 514.2 537.8C557 537.3 600 543.7 642.8 546.7C685.7 549.7 728.3 549.3 771.2 546.7C814 544 857 539 878.5 536.5L900 534L900 601L878.5 601C857 601 814 601 771.2 601C728.3 601 685.7 601 642.8 601C600 601 557 601 514.2 601C471.3 601 428.7 601 385.8 601C343 601 300 601 257.2 601C214.3 601 171.7 601 128.8 601C86 601 43 601 21.5 601L0 601Z" fill="#adada5"></path><path d="M0 560L21.5 562C43 564 86 568 128.8 567.8C171.7 567.7 214.3 563.3 257.2 562C300 560.7 343 562.3 385.8 564C428.7 565.7 471.3 567.3 514.2 567.7C557 568 600 567 642.8 566.5C685.7 566 728.3 566 771.2 566.8C814 567.7 857 569.3 878.5 570.2L900 571L900 601L878.5 601C857 601 814 601 771.2 601C728.3 601 685.7 601 642.8 601C600 601 557 601 514.2 601C471.3 601 428.7 601 385.8 601C343 601 300 601 257.2 601C214.3 601 171.7 601 128.8 601C86 601 43 601 21.5 601L0 601Z" fill="#a8a89e"></path></svg>